# xmcd
#
# Track frame offsets:
#	151
#	12478
#	27877
#	41088
#	53711
#	64172
#	80549
#	94510
#	109445
#	122746
#	134995
#	148666
#
# Disc length: 2166 seconds
#
# Revision: 1
# Processed by: cddbd v1.5.2PL0 Copyright (c) Steve Scherf et al.
# Submitted via: audiograbber 1.83.01
#
DISCID=af08740c
DTITLE=Harold Rogers - Deep into Texas Country
DYEAR=1998
DGENRE=Country
TTITLE0=Texas I Love You
TTITLE1=Closer To The Dawn
TTITLE2=I´ll Live My Life Alone
TTITLE3=Ole´ Buck
TTITLE4=88´ Old´s
TTITLE5=Just A Picture
TTITLE6=Don´t Give Me A Reason
TTITLE7=Teenage Queen
TTITLE8=Eyes Of Blue
TTITLE9=Don´t Give Up On Love
TTITLE10=When The Whiskey Drowe To Town
TTITLE11=God Made Heaven For Me And You
EXTD=
EXTT0=
EXTT1=
EXTT2=
EXTT3=
EXTT4=
EXTT5=
EXTT6=
EXTT7=
EXTT8=
EXTT9=
EXTT10=
EXTT11=
PLAYORDER=
